<?xml version="1.0" encoding="utf-8"?>
<!-- Generator: Adobe Illustrator 25.3.0, SVG Export Plug-In . SVG Version: 6.00 Build 0)  -->
<svg version="1.1" id="Layer_1" xmlns="http://www.w3.org/2000/svg" xmlns:xlink="http://www.w3.org/1999/xlink" x="0px" y="0px"
	 viewBox="0 0 375 440" style="enable-background:new 0 0 375 440;" xml:space="preserve">
<style type="text/css">
	.st0{fill:#222222;}
</style>
<g>
	<path class="st0" d="M-88.37,89.87c0-30.94,0-61.4,0-92.33c170.36,0,340.58,0,511.13,0c0,30.78,0,61.36,0,92.33
		C252.43,89.87,82.35,89.87-88.37,89.87z"/>
	<path class="st0" d="M422.63,229.44c-170.32,0-340.41,0-510.87,0c0-30.86,0-61.45,0-92.46c170.22,0,340.31,0,510.87,0
		C422.63,167.55,422.63,198.14,422.63,229.44z"/>
	<path class="st0" d="M422.84,276.48c0,30.87,0,61.33,0,92.29c-170.3,0-340.51,0-511.09,0c0-30.71,0-61.3,0-92.29
		C82.01,276.48,252.1,276.48,422.84,276.48z"/>
</g>
</svg>
